<svg width="100" height="100" viewBox="0 0 100 100" xmlns="http://www.w3.org/2000/svg">
  <defs>
    <radialGradient id="neb1" cx="40%" cy="45%" r="55%">
      <stop offset="0%" stop-color="#4433aa" stop-opacity="0.6"/>
      <stop offset="40%" stop-color="#221166" stop-opacity="0.3"/>
      <stop offset="100%" stop-color="#0a0a1a" stop-opacity="0"/>
    </radialGradient>
    <radialGradient id="neb2" cx="60%" cy="55%" r="50%">
      <stop offset="0%" stop-color="#aa2266" stop-opacity="0.4"/>
      <stop offset="50%" stop-color="#661133" stop-opacity="0.2"/>
      <stop offset="100%" stop-color="#0a0a1a" stop-opacity="0"/>
    </radialGradient>
    <clipPath id="clip"><circle cx="50" cy="50" r="48"/></clipPath>
  </defs>
  <circle cx="50" cy="50" r="50" fill="#0a0a1a"/>
  <circle cx="50" cy="50" r="48" fill="none" stroke="#1a1a3e" stroke-width="1"/>
  <g clip-path="url(#clip)">
    <rect x="0" y="0" width="100" height="100" fill="url(#neb1)"/>
    <rect x="0" y="0" width="100" height="100" fill="url(#neb2)"/>
    <ellipse cx="35" cy="38" rx="25" ry="14" fill="#3322aa" opacity="0.18" transform="rotate(-20 35 38)"/>
    <ellipse cx="65" cy="62" rx="20" ry="11" fill="#aa2255" opacity="0.14" transform="rotate(15 65 62)"/>
  </g>
  <circle cx="24" cy="22" r="1" fill="#aaa" opacity="0.7"/>
  <circle cx="74" cy="18" r="0.8" fill="#9988ee" opacity="0.8"/>
  <circle cx="15" cy="55" r="0.7" fill="#fff" opacity="0.5"/>
  <circle cx="82" cy="62" r="1" fill="#7766dd" opacity="0.7"/>
  <circle cx="52" cy="88" r="0.7" fill="#aaa" opacity="0.5"/>
  <circle cx="28" cy="78" r="0.8" fill="#9988ee" opacity="0.6"/>
  <circle cx="18" cy="38" r="0.7" fill="#fff" opacity="0.4"/>
  <circle cx="65" cy="12" r="0.8" fill="#7766dd" opacity="0.6"/>
  <circle cx="85" cy="40" r="0.6" fill="#fff" opacity="0.5"/>
  <circle cx="20" cy="68" r="0.7" fill="#cc99ff" opacity="0.5"/>
  <path d="M50,50 Q62,33 74,42 Q86,55 76,72 Q63,84 50,79 Q30,70 27,50 Q27,25 44,16 Q65,7 76,22" fill="none" stroke="#534AB7" stroke-width="2.2" opacity="0.9" stroke-linecap="round"/>
  <path d="M50,50 Q38,67 26,58 Q14,45 22,28 Q35,15 50,20 Q70,30 73,50 Q73,75 58,82 Q38,90 22,76" fill="none" stroke="#7F77DD" stroke-width="1.3" opacity="0.4" stroke-linecap="round"/>
  <circle cx="50" cy="50" r="12" fill="#1a1050" opacity="0.8"/>
  <circle cx="50" cy="50" r="8" fill="#534AB7" opacity="0.95"/>
  <circle cx="50" cy="50" r="4" fill="#AFA9EC"/>
  <circle cx="50" cy="50" r="1.5" fill="white"/>
</svg>